<?xml version="1.0" encoding="UTF-8" standalone="no"?>
<!-- Created with Inkscape (http://www.inkscape.org/) -->

<svg
   width="103.87642mm"
   height="133.56494mm"
   viewBox="0 0 103.87642 133.56494"
   version="1.1"
   id="svg1"
   xml:space="preserve"
   inkscape:version="1.3.2 (091e20ef0f, 2023-11-25)"
   sodipodi:docname="rysunek.svg"
   xmlns:inkscape="http://www.inkscape.org/namespaces/inkscape"
   xmlns:sodipodi="http://sodipodi.sourceforge.net/DTD/sodipodi-0.dtd"
   xmlns="http://www.w3.org/2000/svg"
   xmlns:svg="http://www.w3.org/2000/svg"><sodipodi:namedview
     id="namedview1"
     pagecolor="#ffffff"
     bordercolor="#000000"
     borderopacity="0.25"
     inkscape:showpageshadow="2"
     inkscape:pageopacity="0.0"
     inkscape:pagecheckerboard="0"
     inkscape:deskcolor="#d1d1d1"
     inkscape:document-units="mm"
     inkscape:zoom="0.64000704"
     inkscape:cx="471.86981"
     inkscape:cy="507.80691"
     inkscape:window-width="1720"
     inkscape:window-height="1388"
     inkscape:window-x="0"
     inkscape:window-y="0"
     inkscape:window-maximized="0"
     inkscape:current-layer="layer1" /><defs
     id="defs1" /><g
     inkscape:label="Warstwa 1"
     inkscape:groupmode="layer"
     id="layer1"
     transform="translate(-52.232637,-70.525633)"><path
       style="fill:#121414;stroke:none;stroke-width:0.43246"
       d="m 106.14691,76.2761 h -0.11442 c -3.50638,-2.583663 -9.004828,-1.672383 -13.020424,-1.104325 -0.889734,0.125861 -1.89679,0.701628 -2.780063,0.679825 -0.725312,-0.01791 -1.728948,-1.638903 -2.291387,-2.099271 -1.824414,-1.493319 -5.428714,-3.894218 -7.9154,-3.052328 -2.351846,0.796244 -2.704777,2.692428 -2.982113,4.872682 -0.390987,3.073671 -0.376006,6.422179 0.08147,9.489661 0.160477,1.076042 0.827421,2.022115 0.866745,3.116132 0.06233,1.734037 -0.647336,3.458656 -0.866741,5.170288 -0.38981,3.041083 0.0543,6.100389 1.655175,8.726236 5.900627,9.6785 19.138737,11.60196 28.450978,5.91625 3.56333,-2.17563 6.47411,-5.92846 8.26902,-9.6577 1.34684,-2.79833 1.15452,-5.670199 1.78643,-8.670609 0.433,-2.056012 1.77392,-4.179868 1.89288,-6.30009 0.14234,-2.537151 0.0119,-5.117574 0.0119,-7.658859 0,-1.138071 0.15385,-2.60488 -0.5177,-3.606391 -0.85452,-1.274379 -2.74278,-1.500819 -4.10841,-1.195169 -2.84787,0.637392 -6.80283,2.881771 -8.41795,5.373668 m 16.47672,17.620928 c -0.53757,3.67736 -1.90333,7.297242 -3.92064,10.411292 -1.10948,1.71266 -2.60737,3.16606 -3.63118,4.9212 6.92443,1.9402 12.64458,7.37971 16.7975,12.98269 4.36817,5.89339 7.6528,12.81401 8.77693,20.10896 1.9753,12.81845 -2.23036,27.25757 -12.11995,35.88947 -17.03118,14.86526 -37.775455,10.69891 -51.772466,-1.0752 -5.790627,-4.87099 -10.011083,-11.83491 -11.287068,-19.29916 -1.316611,-7.70187 -0.0109,-16.58939 4.381833,-23.17562 1.907147,-2.85949 5.246211,-4.13655 6.552053,-7.47453 1.753477,-4.48222 -2.117772,-9.03802 -6.836119,-8.28868 -6.715285,1.06648 -10.032229,7.53544 -12.779092,13.03331 -7.452993,14.91717 -5.440105,34.31736 3.735868,48.0399 4.27319,6.39051 9.532734,12.1269 16.164944,16.12568 7.540782,4.54661 15.540123,7.17395 24.323167,7.85543 23.61962,1.83266 45.90059,-14.69676 52.89192,-36.9839 3.17418,-10.11875 2.80608,-21.14338 -0.33782,-31.2078 -2.89771,-9.27629 -8.59151,-17.65319 -15.34225,-24.58475 -3.55006,-3.64515 -7.3283,-7.09101 -10.69261,-10.90284 -1.66266,-1.883818 -3.50176,-4.007839 -4.44733,-6.375452 h -0.45769 M 88.754829,115.40829 c 0.544865,5.20023 4.289174,10.62131 7.122589,14.84622 3.261378,3.64272 6.413362,7.37132 9.522642,11.14069 2.80617,3.35427 4.90708,7.33805 6.56371,11.37127 2.47929,6.03615 2.57925,13.57623 1.93544,19.95559 -0.25508,2.52767 -0.87585,5.13716 -0.887,7.67771 3.90881,-1.46936 7.96657,-3.29577 11.09518,-6.15035 17.58969,-16.04898 12.43733,-45.59247 -7.03627,-57.60328 -1.87669,-1.15748 -5.2312,-3.42661 -7.48346,-3.28222 -1.37585,0.0882 -4.55566,2.72995 -9.636398,3.3767 -2.805889,0.35717 -5.627663,0.34254 -8.397658,-0.3056 -0.98577,-0.23064 -1.824698,-0.79275 -2.798775,-1.02673 m 16.934391,66.13569 c 2.21603,-5.80841 2.11051,-11.76605 2.05963,-17.84977 -4.5e-4,-14.376 -10.404212,-24.52588 -15.318326,-26.13251 -8.273204,-2.70487 -15.913085,5.12863 -17.998959,12.45592 -2.037283,7.1566 0.278024,14.58004 4.882059,20.21124 4.231051,5.17498 12.231163,11.31512 26.375636,11.31512"
       id="path11"
       sodipodi:nodetypes="ccssssssssssssssssccscssssssssssssssssccccssscsssssccssssc"
       inkscape:export-filename="zencat.svg"
       inkscape:export-xdpi="96"
       inkscape:export-ydpi="96" /></g></svg>
